<svg xmlns="http://www.w3.org/2000/svg" width="1200" height="675" viewBox="0 0 1200 675">
  <rect width="1200" height="675" fill="#f7f9fb"/>
  <rect x="55" y="45" width="1090" height="585" rx="18" fill="#ffffff" stroke="#c9d3df" stroke-width="2"/>
  <text x="90" y="105" font-family="Segoe UI, Tahoma, sans-serif" font-size="34" font-weight="700" fill="#18324a">ขั้นตอนที่ 2: สร้าง OU หลักและ OU ย่อย</text>
  <text x="90" y="150" font-family="Segoe UI, Tahoma, sans-serif" font-size="22" fill="#4f6478">จัดวางโครงสร้างตามการบริหารสิทธิ์และการบังคับใช้ GPO</text>
  <rect x="475" y="205" width="250" height="70" rx="12" fill="#18324a"/>
  <text x="600" y="250" text-anchor="middle" font-family="Segoe UI, Tahoma, sans-serif" font-size="24" font-weight="700" fill="#ffffff">hospital.local</text>
  <line x1="600" y1="275" x2="600" y2="325" stroke="#607d96" stroke-width="4"/>
  <line x1="185" y1="325" x2="1015" y2="325" stroke="#607d96" stroke-width="4"/>
  <g font-family="Segoe UI, Tahoma, sans-serif" font-size="18" fill="#18324a">
    <rect x="95" y="355" width="170" height="76" rx="10" fill="#e8f2ff" stroke="#3478c6"/>
    <text x="180" y="400" text-anchor="middle" font-weight="700">00_Admin</text>
    <rect x="285" y="355" width="170" height="76" rx="10" fill="#eef8ef" stroke="#3d8b52"/>
    <text x="370" y="400" text-anchor="middle" font-weight="700">01_Users</text>
    <rect x="475" y="355" width="170" height="76" rx="10" fill="#fff4df" stroke="#cf8a1e"/>
    <text x="560" y="400" text-anchor="middle" font-weight="700">02_Groups</text>
    <rect x="665" y="355" width="170" height="76" rx="10" fill="#f0eaff" stroke="#7a5cc8"/>
    <text x="750" y="400" text-anchor="middle" font-weight="700">03_Computers</text>
    <rect x="855" y="355" width="170" height="76" rx="10" fill="#ffeceb" stroke="#c85c5c"/>
    <text x="940" y="400" text-anchor="middle" font-weight="700">04_Servers</text>
  </g>
  <rect x="160" y="500" width="880" height="70" rx="10" fill="#f1f5f9" stroke="#d5dde6"/>
  <text x="600" y="544" text-anchor="middle" font-family="Segoe UI, Tahoma, sans-serif" font-size="22" fill="#18324a">ผลลัพธ์: OU พร้อมรองรับ Users, Groups, Computers, Servers, Service Accounts และ Testing</text>
</svg>
